<svg width="21" height="21" viewBox="0 0 21 21" fill="none" xmlns="http://www.w3.org/2000/svg">
<path fill-rule="evenodd" clip-rule="evenodd" d="M9.13346 15.5001C5.45157 15.5001 2.4668 12.5153 2.4668 8.83341C2.4668 5.15152 5.45157 2.16675 9.13346 2.16675C12.8154 2.16675 15.8001 5.15152 15.8001 8.83341C15.8001 10.374 15.2776 11.7925 14.4 12.9215L18.8894 17.4108L17.7109 18.5893L13.2215 14.1C12.0926 14.9775 10.6741 15.5001 9.13346 15.5001ZM14.1335 8.83341C14.1335 11.5948 11.8949 13.8334 9.13346 13.8334C6.37204 13.8334 4.13346 11.5948 4.13346 8.83341C4.13346 6.07199 6.37204 3.83341 9.13346 3.83341C11.8949 3.83341 14.1335 6.07199 14.1335 8.83341Z" fill="#F80595"/>
</svg>
