<svg width="21" height="21" viewBox="0 0 21 21" fill="none" xmlns="http://www.w3.org/2000/svg">
<path fill-rule="evenodd" clip-rule="evenodd" d="M11.8677 9.86126H14.1742C14.5239 9.86126 14.7987 9.57211 14.7987 9.22344C14.7987 8.86626 14.5239 8.58562 14.1742 8.58562H11.8677C11.518 8.58562 11.2432 8.86626 11.2432 9.22344C11.2432 9.57211 11.518 9.86126 11.8677 9.86126ZM16.9137 5.4399C17.4217 5.4399 17.7548 5.61849 18.0878 6.00969C18.4209 6.40088 18.4792 6.96216 18.4043 7.47157L17.6132 13.0503C17.4633 14.1227 16.564 14.9128 15.5065 14.9128H6.42193C5.31446 14.9128 4.3985 14.0462 4.30691 12.9236L3.54084 3.65316L2.28348 3.43205C1.95041 3.37252 1.71726 3.04086 1.77555 2.70069C1.83383 2.35286 2.15858 2.1224 2.49998 2.17427L4.48593 2.47958C4.76905 2.53145 4.97722 2.76872 5.0022 3.05786L5.16041 4.96282C5.18539 5.2358 5.40189 5.4399 5.66835 5.4399H16.9137ZM6.28853 16.2569C5.58907 16.2569 5.02285 16.8352 5.02285 17.5495C5.02285 18.2554 5.58907 18.8337 6.28853 18.8337C6.97966 18.8337 7.54588 18.2554 7.54588 17.5495C7.54588 16.8352 6.97966 16.2569 6.28853 16.2569ZM15.6562 16.2569C14.9568 16.2569 14.3905 16.8352 14.3905 17.5495C14.3905 18.2554 14.9568 18.8337 15.6562 18.8337C16.3474 18.8337 16.9136 18.2554 16.9136 17.5495C16.9136 16.8352 16.3474 16.2569 15.6562 16.2569Z" fill="#F80595"/>
</svg>
