<svg width="21" height="21" viewBox="0 0 21 21" fill="none" xmlns="http://www.w3.org/2000/svg">
<path fill-rule="evenodd" clip-rule="evenodd" d="M2.06738 10.5128C2.06738 6.12293 5.57572 2.16699 10.4174 2.16699C15.1507 2.16699 18.7341 6.04781 18.7341 10.4878C18.7341 15.6372 14.534 18.8337 10.4007 18.8337C9.03405 18.8337 7.51738 18.4664 6.30072 17.7487C5.87572 17.49 5.51738 17.298 5.05905 17.4482L3.37572 17.949C2.95072 18.0825 2.56738 17.7487 2.69238 17.298L3.25072 15.4286C3.34238 15.1698 3.32572 14.8944 3.19238 14.6774C2.47572 13.3588 2.06738 11.9149 2.06738 10.5128ZM9.31738 10.5128C9.31738 11.1054 9.79238 11.5811 10.384 11.5895C10.9757 11.5895 11.4507 11.1054 11.4507 10.5212C11.4507 9.92863 10.9757 9.45292 10.384 9.45292C9.80072 9.44457 9.31738 9.92863 9.31738 10.5128ZM13.159 10.5212C13.159 11.1054 13.6341 11.5895 14.2257 11.5895C14.8174 11.5895 15.2924 11.1054 15.2924 10.5212C15.2924 9.92863 14.8174 9.45292 14.2257 9.45292C13.6341 9.45292 13.159 9.92863 13.159 10.5212ZM6.54238 11.5895C5.95905 11.5895 5.47572 11.1054 5.47572 10.5212C5.47572 9.92863 5.95072 9.45292 6.54238 9.45292C7.13405 9.45292 7.60905 9.92863 7.60905 10.5212C7.60905 11.1054 7.13405 11.5811 6.54238 11.5895Z" fill="#525252"/>
</svg>
