<svg width="21" height="21" viewBox="0 0 21 21" fill="none" xmlns="http://www.w3.org/2000/svg">
<path fill-rule="evenodd" clip-rule="evenodd" d="M2.06738 10.5124C2.06738 6.12244 5.57572 2.1665 10.4174 2.1665C15.1507 2.1665 18.7341 6.04733 18.7341 10.4873C18.7341 15.6367 14.534 18.8332 10.4007 18.8332C9.03405 18.8332 7.51738 18.466 6.30072 17.7482C5.87572 17.4895 5.51738 17.2975 5.05905 17.4478L3.37572 17.9485C2.95072 18.082 2.56738 17.7482 2.69238 17.2975L3.25072 15.4281C3.34238 15.1693 3.32572 14.8939 3.19238 14.6769C2.47572 13.3583 2.06738 11.9145 2.06738 10.5124ZM9.31738 10.5124C9.31738 11.1049 9.79238 11.5806 10.384 11.589C10.9757 11.589 11.4507 11.1049 11.4507 10.5207C11.4507 9.92815 10.9757 9.45243 10.384 9.45243C9.80072 9.44409 9.31738 9.92815 9.31738 10.5124ZM13.159 10.5207C13.159 11.1049 13.6341 11.589 14.2257 11.589C14.8174 11.589 15.2924 11.1049 15.2924 10.5207C15.2924 9.92815 14.8174 9.45243 14.2257 9.45243C13.6341 9.45243 13.159 9.92815 13.159 10.5207ZM6.54238 11.589C5.95905 11.589 5.47572 11.1049 5.47572 10.5207C5.47572 9.92815 5.95072 9.45243 6.54238 9.45243C7.13405 9.45243 7.60905 9.92815 7.60905 10.5207C7.60905 11.1049 7.13405 11.5806 6.54238 11.589Z" fill="#F80595"/>
</svg>
