<svg width="17" height="17" viewBox="0 0 17 17" fill="none" xmlns="http://www.w3.org/2000/svg">
<path d="M6.11199 15.8112V13.2631C6.11199 12.6126 6.64315 12.0853 7.29837 12.0853H9.69352C10.0082 12.0853 10.3099 12.2094 10.5324 12.4303C10.7549 12.6512 10.8799 12.9507 10.8799 13.2631V15.8112C10.8779 16.0816 10.9847 16.3416 11.1767 16.5336C11.3686 16.7255 11.6297 16.8334 11.9021 16.8334H13.5362C14.2994 16.8354 15.032 16.5358 15.5723 16.0008C16.1127 15.4657 16.4163 14.7392 16.4163 13.9816V6.72246C16.4163 6.11047 16.1431 5.52995 15.6702 5.13731L10.1114 0.729972C9.14439 -0.0427839 7.75893 -0.0178335 6.82083 0.789231L1.38885 5.13731C0.893625 5.51838 0.597635 6.10061 0.583008 6.72246V13.9742C0.583008 15.5533 1.87249 16.8334 3.46315 16.8334H5.05992C5.6257 16.8334 6.08551 16.3803 6.0896 15.8186L6.11199 15.8112Z" fill="#525252"/>
</svg>
