<svg width="18" height="18" viewBox="0 0 18 18" fill="none" xmlns="http://www.w3.org/2000/svg">
<path d="M12.0432 9.59169C12.8602 8.94891 13.4565 8.06746 13.7492 7.06997C14.0419 6.07249 14.0165 5.00858 13.6764 4.02625C13.3362 3.04391 12.6984 2.19202 11.8516 1.58907C11.0048 0.986122 9.99108 0.662109 8.95154 0.662109C7.91199 0.662109 6.8983 0.986122 6.05148 1.58907C5.20466 2.19202 4.56682 3.04391 4.22671 4.02625C3.8866 5.00858 3.86113 6.07249 4.15384 7.06997C4.44654 8.06746 5.04288 8.94891 5.85987 9.59169C4.45993 10.1526 3.23844 11.0828 2.32561 12.2833C1.41278 13.4838 0.842838 14.9094 0.676535 16.4084C0.664497 16.5178 0.674132 16.6285 0.70489 16.7342C0.735647 16.8399 0.786925 16.9386 0.855795 17.0245C0.994884 17.1979 1.19719 17.309 1.4182 17.3334C1.63922 17.3577 1.86084 17.2932 2.03431 17.1541C2.20778 17.015 2.31889 16.8127 2.3432 16.5917C2.52619 14.9627 3.30294 13.4582 4.52505 12.3657C5.74716 11.2732 7.32895 10.6692 8.9682 10.6692C10.6075 10.6692 12.1892 11.2732 13.4114 12.3657C14.6335 13.4582 15.4102 14.9627 15.5932 16.5917C15.6159 16.7965 15.7136 16.9856 15.8675 17.1225C16.0214 17.2595 16.2205 17.3346 16.4265 17.3334H16.5182C16.7366 17.3082 16.9363 17.1978 17.0737 17.0261C17.211 16.8544 17.275 16.6353 17.2515 16.4167C17.0844 14.9135 16.5114 13.4842 15.5939 12.2819C14.6764 11.0795 13.449 10.1496 12.0432 9.59169ZM8.95154 9.00002C8.29226 9.00002 7.6478 8.80453 7.09964 8.43825C6.55147 8.07198 6.12423 7.55139 5.87194 6.9423C5.61964 6.33321 5.55363 5.66299 5.68225 5.01639C5.81087 4.36979 6.12834 3.77584 6.59451 3.30967C7.06069 2.84349 7.65463 2.52602 8.30124 2.39741C8.94784 2.26879 9.61806 2.3348 10.2271 2.58709C10.8362 2.83938 11.3568 3.26662 11.7231 3.81479C12.0894 4.36295 12.2849 5.00742 12.2849 5.66669C12.2849 6.55074 11.9337 7.39859 11.3086 8.02371C10.6834 8.64883 9.83559 9.00002 8.95154 9.00002Z" fill="#F80595"/>
</svg>
