<svg width="11" height="11" viewBox="0 0 11 11" fill="none" xmlns="http://www.w3.org/2000/svg">
<path d="M10.9163 4.47088C10.9705 4.20005 10.7538 3.87505 10.483 3.87505L7.39551 3.44171L5.98717 0.625048C5.93301 0.516715 5.87884 0.462548 5.77051 0.408381C5.49967 0.245881 5.17467 0.354215 5.01218 0.625048L3.65801 3.44171L0.570508 3.87505C0.408008 3.87505 0.299674 3.92921 0.245508 4.03755C0.0288411 4.25422 0.0288411 4.57921 0.245508 4.79588L2.46634 6.96255L1.92467 10.05C1.92467 10.1584 1.92467 10.2667 1.97884 10.375C2.14134 10.6459 2.46634 10.7542 2.73717 10.5917L5.49967 9.12922L8.26217 10.5917C8.31634 10.6459 8.42467 10.6459 8.53301 10.6459C8.58718 10.6459 8.58717 10.6459 8.64134 10.6459C8.91217 10.5917 9.12884 10.3209 9.07467 9.99588L8.53301 6.90838L10.7538 4.74171C10.8622 4.68755 10.9163 4.57922 10.9163 4.47088Z" fill="#F80595"/>
</svg>
