<svg width="14" height="14" viewBox="0 0 14 14" fill="none" xmlns="http://www.w3.org/2000/svg">
<path fill-rule="evenodd" clip-rule="evenodd" d="M11.8342 3.05824C12.0611 3.05824 12.25 3.24665 12.25 3.4864V3.70806C12.25 3.94198 12.0611 4.13622 11.8342 4.13622H2.16641C1.93892 4.13622 1.75 3.94198 1.75 3.70806V3.4864C1.75 3.24665 1.93892 3.05824 2.16641 3.05824H3.86725C4.21275 3.05824 4.51343 2.81265 4.59115 2.46616L4.68022 2.06833C4.81865 1.52642 5.27421 1.1665 5.79557 1.1665H8.20442C8.72012 1.1665 9.18079 1.52642 9.31411 2.03975L9.40942 2.46557C9.48657 2.81265 9.78725 3.05824 10.1333 3.05824H11.8342ZM10.9701 11.1614C11.1476 9.50645 11.4585 5.57483 11.4585 5.53516C11.4699 5.41499 11.4307 5.30125 11.353 5.20966C11.2696 5.12391 11.1641 5.07316 11.0478 5.07316H2.95664C2.83977 5.07316 2.72857 5.12391 2.65142 5.20966C2.57313 5.30125 2.53455 5.41499 2.54022 5.53516C2.54127 5.54245 2.55242 5.68094 2.57107 5.91247C2.65392 6.94103 2.88468 9.80577 3.03379 11.1614C3.13932 12.16 3.79457 12.7877 4.7437 12.8104C5.47612 12.8273 6.23065 12.8332 7.00221 12.8332C7.72895 12.8332 8.46704 12.8273 9.22214 12.8104C10.2042 12.7935 10.8589 12.1769 10.9701 11.1614Z" fill="#F80595"/>
</svg>
