<svg width="24" height="24" viewBox="0 0 24 24" fill="none" xmlns="http://www.w3.org/2000/svg">
<rect width="24" height="24" fill="#E5E5E5"/>
<rect width="320" height="640" transform="translate(-277 -36)" fill="#0D0D0D"/>
<rect x="-277" y="-36" width="320" height="69" fill="#0D0D0D"/>
<rect width="24" height="24" rx="12" fill="#C4C4C4"/>
<path fill-rule="evenodd" clip-rule="evenodd" d="M15.0878 9.25307C15.0878 10.9663 13.7142 12.3401 11.9997 12.3401C10.2858 12.3401 8.91152 10.9663 8.91152 9.25307C8.91152 7.53981 10.2858 6.16663 11.9997 6.16663C13.7142 6.16663 15.0878 7.53981 15.0878 9.25307ZM11.9997 17.8333C9.46939 17.8333 7.33301 17.422 7.33301 15.8354C7.33301 14.2481 9.48281 13.8514 11.9997 13.8514C14.5305 13.8514 16.6663 14.2627 16.6663 15.8494C16.6663 17.4366 14.5165 17.8333 11.9997 17.8333Z" fill="#171717"/>
</svg>
