<svg width="24" height="24" viewBox="0 0 24 24" fill="none" xmlns="http://www.w3.org/2000/svg">
<path d="M7.6524 16.3996C7.40926 16.3811 6.95113 16.36 6.49811 16.3098C6.02462 16.2543 5.67142 15.9691 5.38988 15.594C5.28239 15.4514 5.20049 15.2823 5.13138 15.1133C4.52224 13.6315 3.92078 12.1444 3.3142 10.66C3.03522 9.97854 2.75625 9.29972 2.47983 8.61562C2.26996 8.09528 2.47215 7.82586 3.01475 7.90246C4.01036 8.04773 5.00341 8.03981 5.99646 7.87869C7.04582 7.70964 8.05935 7.39797 9.04217 6.9912C10.1581 6.53161 11.2612 6.03769 12.3771 5.57281C13.1705 5.24265 13.9716 4.92833 14.8111 4.73287C15.5072 4.56911 16.2085 4.42912 16.92 4.40271C17.4063 4.38422 17.8977 4.45289 18.3866 4.48459C18.5043 4.49251 18.6246 4.49779 18.7423 4.51364C19.1774 4.56911 19.4871 4.8306 19.7533 5.16605C20.04 5.52791 20.1654 5.96901 20.3343 6.39162C20.5544 6.94102 20.7899 7.48249 21.0125 8.02924C21.5833 9.41858 22.1489 10.8106 22.7171 12.1999C22.7504 12.2791 22.7785 12.3663 22.7913 12.4508C22.8323 12.7202 22.6941 12.8998 22.4305 12.9157C22.2948 12.9236 22.1592 12.9051 22.0235 12.8866C20.406 12.6674 18.8345 12.8946 17.2912 13.3991C16.1266 13.782 15.0133 14.2971 13.8871 14.7805C13.191 15.0789 12.4897 15.3695 11.7782 15.6257C11.1511 15.8502 10.5138 16.0457 9.86886 16.2015C9.21621 16.3653 8.53796 16.3943 7.6524 16.3996ZM9.44399 10.5306C9.5003 11.6848 10.0813 12.6991 11.233 13.3198C12.3054 13.9009 13.3778 13.8719 14.3888 13.1428C15.5584 12.3003 16.0422 10.7657 15.5789 9.41594C15.0901 7.98434 13.7361 7.02818 12.3182 7.1127C10.7544 7.20515 9.44399 8.67637 9.44399 10.5306Z" fill="#3CD070"/>
<path d="M22.2773 16.1821C21.9914 16.1535 21.7082 16.117 21.4223 16.0936C20.014 15.9868 18.6427 16.1821 17.2952 16.5805C16.0457 16.9502 14.8545 17.4632 13.6579 17.9657C12.464 18.4657 11.2648 18.95 10.0021 19.2598C8.6573 19.5905 7.29927 19.6947 5.92006 19.5098C5.27678 19.4239 4.8241 19.0593 4.55408 18.4995C4.28406 17.9397 4.0564 17.3617 3.81286 16.7914C3.14046 15.2161 2.46541 13.6408 1.79301 12.0655C1.74272 11.9457 1.68977 11.8233 1.66065 11.6983C1.62359 11.5473 1.65006 11.4015 1.79037 11.3025C1.94126 11.1958 2.11333 11.1984 2.2854 11.2348C2.31452 11.2401 2.33834 11.2895 2.35158 11.3234C2.83602 12.4508 3.31517 13.5783 3.79962 14.7057C4.02463 15.2343 4.27348 15.7525 4.47731 16.2889C4.65468 16.7524 4.97499 17.0804 5.39855 17.2992C5.62886 17.4163 5.90947 17.4606 6.17419 17.484C6.66128 17.5257 7.15102 17.5465 7.63811 17.5361C8.8479 17.5127 10.0233 17.2731 11.1536 16.8643C12.284 16.4581 13.3932 15.9999 14.5077 15.5494C15.5984 15.1093 16.6864 14.6719 17.83 14.3777C19.1642 14.034 20.5116 13.922 21.8829 14.0756C22.0312 14.0912 22.1159 14.1407 22.1688 14.2865C22.3382 14.7344 22.5235 15.1744 22.6956 15.6197C22.7247 15.6978 22.738 15.7915 22.7221 15.8723C22.6797 16.1014 22.55 16.1847 22.2773 16.1821Z" fill="#3CD070"/>
</svg>
